<mxfile host="Electron" agent="Mozilla/5.0 (Windows NT 10.0; Win64; x64) AppleWebKit/537.36 (KHTML, like Gecko) draw.io/24.7.17 Chrome/128.0.6613.36 Electron/32.0.1 Safari/537.36" version="24.7.17">
  <diagram name="Page-1" id="Z8_rVarf6uZXu_Iodj0e">
    <mxGraphModel dx="1434" dy="836" grid="1" gridSize="10" guides="1" tooltips="1" connect="1" arrows="1" fold="1" page="1" pageScale="1" pageWidth="827" pageHeight="1169" math="0" shadow="0">
      <root>
        <mxCell id="0" />
        <mxCell id="1" parent="0" />
        <mxCell id="rh6AaQn6CwKPCrESgCGR-1" value="" style="rounded=1;whiteSpace=wrap;html=1;fillColor=#f5f5f5;dashed=1;dashPattern=8 8;strokeColor=#666666;fontColor=#333333;" parent="1" vertex="1">
          <mxGeometry x="180" y="150" width="485" height="130" as="geometry" />
        </mxCell>
        <mxCell id="3pVSWyLYYMOGcMc_mAw4-1" style="edgeStyle=orthogonalEdgeStyle;rounded=0;orthogonalLoop=1;jettySize=auto;html=1;exitX=0.5;exitY=1;exitDx=0;exitDy=0;entryX=0.75;entryY=0;entryDx=0;entryDy=0;" edge="1" parent="1" source="rh6AaQn6CwKPCrESgCGR-2" target="rh6AaQn6CwKPCrESgCGR-6">
          <mxGeometry relative="1" as="geometry" />
        </mxCell>
        <mxCell id="rh6AaQn6CwKPCrESgCGR-2" value="&lt;br&gt;GUI&lt;br&gt;&lt;ul&gt;&lt;li style=&quot;text-align: left;&quot;&gt;Basic dish control&lt;/li&gt;&lt;li style=&quot;text-align: left;&quot;&gt;Live server values displayed&lt;/li&gt;&lt;/ul&gt;" style="rounded=1;whiteSpace=wrap;html=1;fillColor=#f5f5f5;fontColor=#333333;strokeColor=#666666;" parent="1" vertex="1">
          <mxGeometry x="470" y="170" width="154" height="83" as="geometry" />
        </mxCell>
        <mxCell id="rh6AaQn6CwKPCrESgCGR-3" value="DiSQ" style="text;html=1;strokeColor=none;fillColor=none;align=center;verticalAlign=middle;whiteSpace=wrap;rounded=0;fontSize=71;" parent="1" vertex="1">
          <mxGeometry x="329" y="20" width="170" height="70" as="geometry" />
        </mxCell>
        <mxCell id="rh6AaQn6CwKPCrESgCGR-23" style="edgeStyle=orthogonalEdgeStyle;rounded=0;orthogonalLoop=1;jettySize=auto;html=1;exitX=0.5;exitY=1;exitDx=0;exitDy=0;entryX=0;entryY=0.5;entryDx=0;entryDy=0;entryPerimeter=0;curved=1;dashed=1;dashPattern=1 2;strokeWidth=2;startArrow=classicThin;startFill=1;endArrow=classicThin;endFill=1;" parent="1" source="rh6AaQn6CwKPCrESgCGR-4" target="rh6AaQn6CwKPCrESgCGR-20" edge="1">
          <mxGeometry relative="1" as="geometry" />
        </mxCell>
        <mxCell id="rh6AaQn6CwKPCrESgCGR-4" value="Asyncua&lt;br&gt;&lt;ul&gt;&lt;li style=&quot;text-align: left;&quot;&gt;OPCUA client&lt;/li&gt;&lt;/ul&gt;" style="rounded=1;whiteSpace=wrap;html=1;fillColor=#e1d5e7;strokeColor=#9673a6;align=center;" parent="1" vertex="1">
          <mxGeometry x="430" y="560" width="154" height="89" as="geometry" />
        </mxCell>
        <mxCell id="rh6AaQn6CwKPCrESgCGR-5" value="&lt;br&gt;Logger&lt;br&gt;&lt;ul&gt;&lt;li style=&quot;text-align: left;&quot;&gt;Create HDF5 files from attribute data&lt;/li&gt;&lt;li style=&quot;text-align: left;&quot;&gt;Produces HDF5 files that can be used in the DiSQ HDF5 to CSV converter&lt;/li&gt;&lt;/ul&gt;&lt;div style=&quot;text-align: left;&quot;&gt;&lt;/div&gt;" style="rounded=1;whiteSpace=wrap;html=1;fillColor=#e1d5e7;strokeColor=#9673a6;" parent="1" vertex="1">
          <mxGeometry x="615" y="353.5" width="170" height="134" as="geometry" />
        </mxCell>
        <mxCell id="rh6AaQn6CwKPCrESgCGR-26" style="edgeStyle=orthogonalEdgeStyle;rounded=0;orthogonalLoop=1;jettySize=auto;html=1;exitX=1;exitY=0.5;exitDx=0;exitDy=0;entryX=0;entryY=0.5;entryDx=0;entryDy=0;jumpStyle=arc;endArrow=classic;endFill=1;jumpSize=10;" parent="1" source="rh6AaQn6CwKPCrESgCGR-6" target="rh6AaQn6CwKPCrESgCGR-5" edge="1">
          <mxGeometry relative="1" as="geometry">
            <mxPoint x="715" y="420.5" as="targetPoint" />
          </mxGeometry>
        </mxCell>
        <mxCell id="3pVSWyLYYMOGcMc_mAw4-6" style="edgeStyle=orthogonalEdgeStyle;rounded=0;orthogonalLoop=1;jettySize=auto;html=1;exitX=0.75;exitY=1;exitDx=0;exitDy=0;entryX=0.5;entryY=0;entryDx=0;entryDy=0;" edge="1" parent="1" source="rh6AaQn6CwKPCrESgCGR-6" target="rh6AaQn6CwKPCrESgCGR-4">
          <mxGeometry relative="1" as="geometry" />
        </mxCell>
        <mxCell id="3pVSWyLYYMOGcMc_mAw4-10" style="edgeStyle=orthogonalEdgeStyle;rounded=0;orthogonalLoop=1;jettySize=auto;html=1;exitX=0.25;exitY=1;exitDx=0;exitDy=0;entryX=0.5;entryY=0;entryDx=0;entryDy=0;" edge="1" parent="1" source="rh6AaQn6CwKPCrESgCGR-6" target="3pVSWyLYYMOGcMc_mAw4-9">
          <mxGeometry relative="1" as="geometry" />
        </mxCell>
        <mxCell id="rh6AaQn6CwKPCrESgCGR-6" value="SCU library&lt;br&gt;&lt;ul&gt;&lt;li style=&quot;text-align: left;&quot;&gt;Commands to control connected servers&lt;/li&gt;&lt;li style=&quot;text-align: left;&quot;&gt;Attributes to read values from connected servers&lt;/li&gt;&lt;/ul&gt;" style="rounded=1;whiteSpace=wrap;html=1;fillColor=#dae8fc;strokeColor=#6c8ebf;" parent="1" vertex="1">
          <mxGeometry x="314" y="361" width="236" height="119" as="geometry" />
        </mxCell>
        <mxCell id="rh6AaQn6CwKPCrESgCGR-29" style="edgeStyle=orthogonalEdgeStyle;rounded=0;orthogonalLoop=1;jettySize=auto;html=1;exitX=0.5;exitY=1;exitDx=0;exitDy=0;entryX=0.25;entryY=0;entryDx=0;entryDy=0;" parent="1" source="rh6AaQn6CwKPCrESgCGR-7" target="rh6AaQn6CwKPCrESgCGR-6" edge="1">
          <mxGeometry relative="1" as="geometry">
            <Array as="points">
              <mxPoint x="326" y="320" />
              <mxPoint x="373" y="320" />
            </Array>
          </mxGeometry>
        </mxCell>
        <mxCell id="rh6AaQn6CwKPCrESgCGR-7" value="Python Scripts&lt;br&gt;&lt;ul&gt;&lt;li style=&quot;text-align: left;&quot;&gt;Full dish control&lt;/li&gt;&lt;/ul&gt;" style="rounded=1;whiteSpace=wrap;html=1;fillColor=#f5f5f5;fontColor=#333333;strokeColor=#666666;" parent="1" vertex="1">
          <mxGeometry x="260" y="177" width="132" height="73" as="geometry" />
        </mxCell>
        <mxCell id="rh6AaQn6CwKPCrESgCGR-13" value="Engineering Interface" style="text;html=1;strokeColor=none;fillColor=none;align=center;verticalAlign=middle;whiteSpace=wrap;rounded=0;" parent="1" vertex="1">
          <mxGeometry x="190" y="150" width="130" height="30" as="geometry" />
        </mxCell>
        <mxCell id="rh6AaQn6CwKPCrESgCGR-20" value="" style="fontColor=#0066CC;verticalAlign=top;verticalLabelPosition=bottom;labelPosition=center;align=center;html=1;outlineConnect=0;fillColor=#CCCCCC;strokeColor=#6881B3;gradientColor=none;gradientDirection=north;strokeWidth=2;shape=mxgraph.networks.server;" parent="1" vertex="1">
          <mxGeometry x="620" y="700" width="90" height="100" as="geometry" />
        </mxCell>
        <mxCell id="rh6AaQn6CwKPCrESgCGR-21" value="" style="endArrow=none;dashed=1;html=1;rounded=0;dashPattern=8 8;entryX=0.5;entryY=0;entryDx=0;entryDy=0;exitX=0.5;exitY=1;exitDx=0;exitDy=0;" parent="1" source="rh6AaQn6CwKPCrESgCGR-1" target="rh6AaQn6CwKPCrESgCGR-1" edge="1">
          <mxGeometry width="50" height="50" relative="1" as="geometry">
            <mxPoint x="620" y="270" as="sourcePoint" />
            <mxPoint x="670" y="220" as="targetPoint" />
          </mxGeometry>
        </mxCell>
        <mxCell id="rh6AaQn6CwKPCrESgCGR-22" value="Dish OPCUA Server" style="text;html=1;strokeColor=none;fillColor=none;align=center;verticalAlign=middle;whiteSpace=wrap;rounded=0;fontSize=17;" parent="1" vertex="1">
          <mxGeometry x="730" y="690" width="72.5" height="81" as="geometry" />
        </mxCell>
        <mxCell id="rh6AaQn6CwKPCrESgCGR-24" value="" style="fontColor=#0066CC;verticalAlign=top;verticalLabelPosition=bottom;labelPosition=center;align=center;html=1;outlineConnect=0;fillColor=#CCCCCC;strokeColor=#6881B3;gradientColor=none;gradientDirection=north;strokeWidth=2;shape=mxgraph.networks.satellite_dish;" parent="1" vertex="1">
          <mxGeometry x="640" y="610" width="90" height="100" as="geometry" />
        </mxCell>
        <mxCell id="rh6AaQn6CwKPCrESgCGR-33" value="Communicates with" style="text;html=1;strokeColor=none;fillColor=default;align=center;verticalAlign=middle;whiteSpace=wrap;rounded=0;" parent="1" vertex="1">
          <mxGeometry x="490" y="700" width="70" height="30" as="geometry" />
        </mxCell>
        <mxCell id="rh6AaQn6CwKPCrESgCGR-34" value="1" style="text;html=1;strokeColor=none;fillColor=default;align=center;verticalAlign=middle;whiteSpace=wrap;rounded=0;" parent="1" vertex="1">
          <mxGeometry x="553" y="390" width="20" height="20" as="geometry" />
        </mxCell>
        <mxCell id="rh6AaQn6CwKPCrESgCGR-35" value="1" style="text;html=1;strokeColor=none;fillColor=default;align=center;verticalAlign=middle;whiteSpace=wrap;rounded=0;" parent="1" vertex="1">
          <mxGeometry x="466" y="323" width="20" height="20" as="geometry" />
        </mxCell>
        <mxCell id="rh6AaQn6CwKPCrESgCGR-36" value="1" style="text;html=1;strokeColor=none;fillColor=#eeeeee;align=center;verticalAlign=middle;whiteSpace=wrap;rounded=0;" parent="1" vertex="1">
          <mxGeometry x="557" y="256" width="20" height="20" as="geometry" />
        </mxCell>
        <mxCell id="rh6AaQn6CwKPCrESgCGR-38" value="0..1" style="text;html=1;strokeColor=none;fillColor=default;align=center;verticalAlign=middle;whiteSpace=wrap;rounded=0;" parent="1" vertex="1">
          <mxGeometry x="590" y="390" width="20" height="20" as="geometry" />
        </mxCell>
        <mxCell id="3pVSWyLYYMOGcMc_mAw4-3" value="1" style="text;html=1;strokeColor=none;fillColor=#eeeeee;align=center;verticalAlign=middle;whiteSpace=wrap;rounded=0;" vertex="1" parent="1">
          <mxGeometry x="337" y="256" width="20" height="20" as="geometry" />
        </mxCell>
        <mxCell id="3pVSWyLYYMOGcMc_mAw4-4" value="1" style="text;html=1;strokeColor=none;fillColor=default;align=center;verticalAlign=middle;whiteSpace=wrap;rounded=0;direction=south;" vertex="1" parent="1">
          <mxGeometry x="346" y="324" width="20" height="20" as="geometry" />
        </mxCell>
        <mxCell id="3pVSWyLYYMOGcMc_mAw4-7" value="1" style="text;html=1;strokeColor=none;fillColor=default;align=center;verticalAlign=middle;whiteSpace=wrap;rounded=0;" vertex="1" parent="1">
          <mxGeometry x="497" y="487.5" width="20" height="20" as="geometry" />
        </mxCell>
        <mxCell id="3pVSWyLYYMOGcMc_mAw4-8" value="1" style="text;html=1;strokeColor=none;fillColor=default;align=center;verticalAlign=middle;whiteSpace=wrap;rounded=0;" vertex="1" parent="1">
          <mxGeometry x="515" y="530" width="20" height="20" as="geometry" />
        </mxCell>
        <mxCell id="3pVSWyLYYMOGcMc_mAw4-9" value="ska-mid-wms&lt;br&gt;&lt;ul&gt;&lt;li style=&quot;text-align: left;&quot;&gt;Weather station client&lt;/li&gt;&lt;/ul&gt;" style="rounded=1;whiteSpace=wrap;html=1;fillColor=#e1d5e7;strokeColor=#9673a6;align=center;" vertex="1" parent="1">
          <mxGeometry x="240" y="560" width="154" height="89" as="geometry" />
        </mxCell>
        <mxCell id="3pVSWyLYYMOGcMc_mAw4-11" value="1" style="text;html=1;strokeColor=none;fillColor=default;align=center;verticalAlign=middle;whiteSpace=wrap;rounded=0;" vertex="1" parent="1">
          <mxGeometry x="347" y="487.5" width="20" height="20" as="geometry" />
        </mxCell>
        <mxCell id="3pVSWyLYYMOGcMc_mAw4-12" value="1" style="text;html=1;strokeColor=none;fillColor=default;align=center;verticalAlign=middle;whiteSpace=wrap;rounded=0;" vertex="1" parent="1">
          <mxGeometry x="285" y="530" width="20" height="20" as="geometry" />
        </mxCell>
        <mxCell id="3pVSWyLYYMOGcMc_mAw4-13" value="" style="sketch=0;outlineConnect=0;fontColor=#232F3E;gradientColor=none;fillColor=#7AA116;strokeColor=none;dashed=0;verticalLabelPosition=bottom;verticalAlign=top;align=center;html=1;fontSize=12;fontStyle=0;aspect=fixed;pointerEvents=1;shape=mxgraph.aws4.iot_thing_humidity_sensor;" vertex="1" parent="1">
          <mxGeometry x="90" y="710" width="120" height="120" as="geometry" />
        </mxCell>
        <mxCell id="3pVSWyLYYMOGcMc_mAw4-18" style="edgeStyle=orthogonalEdgeStyle;rounded=0;orthogonalLoop=1;jettySize=auto;html=1;exitX=0.5;exitY=1;exitDx=0;exitDy=0;curved=1;dashed=1;dashPattern=1 2;strokeWidth=2;startArrow=classicThin;startFill=1;endArrow=classicThin;endFill=1;" edge="1" parent="1" source="3pVSWyLYYMOGcMc_mAw4-9">
          <mxGeometry relative="1" as="geometry">
            <mxPoint x="517" y="659" as="sourcePoint" />
            <mxPoint x="220" y="770" as="targetPoint" />
            <Array as="points">
              <mxPoint x="317" y="770" />
            </Array>
          </mxGeometry>
        </mxCell>
        <mxCell id="3pVSWyLYYMOGcMc_mAw4-17" value="Communicates with" style="text;html=1;strokeColor=none;fillColor=default;align=center;verticalAlign=middle;whiteSpace=wrap;rounded=0;" vertex="1" parent="1">
          <mxGeometry x="260" y="710" width="70" height="30" as="geometry" />
        </mxCell>
        <mxCell id="3pVSWyLYYMOGcMc_mAw4-19" value="Weather Station" style="text;html=1;strokeColor=none;fillColor=none;align=center;verticalAlign=middle;whiteSpace=wrap;rounded=0;fontSize=17;" vertex="1" parent="1">
          <mxGeometry x="100" y="647" width="72.5" height="81" as="geometry" />
        </mxCell>
      </root>
    </mxGraphModel>
  </diagram>
</mxfile>
